<!-- Generated by IcoMoon.io -->
<svg version="1.1" xmlns="http://www.w3.org/2000/svg" width="32" height="32" viewBox="0 0 32 32">
<title>cocktail-on-a-glass-svgrepo-com</title>
<path d="M19.062 30.551v-10.911h0.732l8.323-12.497h-4.505l2.373-4.264c0.089 0.018 0.175 0.054 0.271 0.054 0.811 0 1.467-0.656 1.467-1.466s-0.656-1.467-1.467-1.467c-0.808 0-1.464 0.656-1.464 1.467 0 0.462 0.225 0.854 0.557 1.125l-2.533 4.55h-11.365c0.133-0.554 0.137-1.148-0.008-1.765-0.484-2.057-2.55-3.335-4.606-2.85-2.057 0.483-3.337 2.549-2.851 4.606s2.55 3.335 4.607 2.851c0.1-0.024 0.179-0.049 0.267-0.076l6.482 9.734h0.732v10.911c-2.737 0.076-4.772 0.366-4.772 0.712 0 0.405 2.805 0.735 6.266 0.735s6.264-0.328 6.264-0.735c-0.003-0.347-2.032-0.637-4.77-0.715zM4.657 7.283l2.47-0.58-1.329 2.146c-0.518-0.384-0.927-0.921-1.142-1.566zM6.316 9.161l0.984-1.593 0.725 1.090 0.184 0.782c-0.666 0.104-1.323-0.003-1.894-0.279zM8.289 7.144l-0.061-0.26-0.365-0.228-0.222 0.365 0.028 0.122h-0.104l0.076-0.122-0.098-0.415-0.413 0.096 0.222-0.361-0.362-0.226-2.472 0.583c-0.094-0.674 0.031-1.338 0.325-1.913l2.146 1.33 0.415-0.096-0.099-0.416-2.139-1.325c0.389-0.503 0.931-0.892 1.57-1.095l0.571 2.421 0.361 0.224 0.226-0.362-0.568-2.412c0.656-0.081 1.296 0.046 1.856 0.331l-1.288 2.081 0.098 0.416 0.415-0.098 1.285-2.073c0.488 0.378 0.873 0.898 1.079 1.517l-2.364 0.556-0.224 0.362 0.361 0.225-0.415 0.095 0.098 0.418 0.422 0.259-0.359 0.001zM8.547 6.371l2.363-0.557c0.064 0.457 0.023 0.908-0.099 1.331h-1.015l-1.249-0.774zM16.083 18.251l-6.471-9.721h12.431l-1.744 3.133 0.792-0.003 1.744-3.13h2.687l-6.472 9.721h-2.966zM17.301 17.045l2.998-5.38-8.255 0.003 4.403 6.312h2.328l4.313-6.319h-1.996l-3.186 5.719-0.605-0.335zM18.164 12.87c0.427 0 0.774 0.347 0.774 0.774 0 0.426-0.348 0.771-0.774 0.771-0.424 0-0.771-0.347-0.771-0.771 0-0.427 0.347-0.774 0.771-0.774zM14.676 13.219c-0.233 0-0.427-0.19-0.427-0.426s0.193-0.427 0.427-0.427c0.235 0 0.427 0.19 0.427 0.427 0 0.233-0.193 0.426-0.427 0.426zM17.737 13.643c0-0.236 0.191-0.427 0.427-0.427s0.427 0.191 0.427 0.427-0.191 0.427-0.427 0.427c-0.236 0-0.427-0.191-0.427-0.427zM7.819 5.919l-0.241 0.060 0.094-0.152 0.148 0.092zM7.957 6.506l-0.094 0.149-0.149-0.094 0.243-0.056zM8.090 6.293l0.039 0.172-0.172 0.041 0.133-0.213zM7.577 5.979l-0.131 0.212-0.041-0.172 0.172-0.039zM7.446 6.19l0.056 0.243-0.151-0.094 0.095-0.149zM8.090 6.293l-0.057-0.243 0.15 0.094-0.094 0.149zM7.714 6.562l-0.171 0.043-0.042-0.172 0.213 0.129zM7.819 5.919l0.174-0.039 0.039 0.171-0.213-0.131z"></path>
</svg>
