<!-- Generated by IcoMoon.io -->
<svg version="1.1" xmlns="http://www.w3.org/2000/svg" width="32" height="32" viewBox="0 0 32 32">
<title>FLAVORS</title>
<path d="M27.497 31.246l-6.729-27.218 1.193-0.689-0.608-1.054-1.589 0.917c-0 0-0 0-0 0l-0.223 0.129c-1.034-1.507-2.55-2.588-4.334-3.066-1.982-0.531-4.051-0.258-5.828 0.767s-3.047 2.682-3.579 4.664c-0.478 1.784-0.299 3.637 0.489 5.286l-1.804 1.041 0.608 1.054 1.184-0.684 7.046 6.777-0.003 0.004 0.041 0.033 13.123 12.622c0.116 0.112 0.269 0.17 0.422 0.17 0.104 0 0.209-0.027 0.304-0.081 0.235-0.135 0.351-0.41 0.286-0.673zM6.975 6.011c0.447-1.668 1.516-3.061 3.012-3.925 0.996-0.575 2.101-0.869 3.221-0.869 0.561 0 1.127 0.074 1.683 0.223 1.47 0.394 2.727 1.272 3.596 2.499l-9.219 5.322c-0.773-1.932-0.034-4.195 1.82-5.266 0.291-0.168 0.391-0.54 0.223-0.831s-0.541-0.392-0.831-0.223c-2.436 1.407-3.381 4.416-2.277 6.935l-0.863 0.498c-0.628-1.366-0.76-2.894-0.366-4.364zM18.322 22.29l1.155-1.75-1.015-0.67-1.031 1.562-2.469-2.375 2.094-2.661-0.956-0.752-2.019 2.566-2.724-2.62 2.959-3.955-0.974-0.729-2.868 3.834-3.097-2.979 0.023-0.014c0 0 0 0 0-0l12.273-7.086 6.139 24.832-7.489-7.203z"></path>
</svg>
