<!-- Generated by IcoMoon.io -->
<svg version="1.1" xmlns="http://www.w3.org/2000/svg" width="32" height="32" viewBox="0 0 32 32">
<title>FRUIT</title>
<path d="M27.802 11.802c0-3.205-2.313-5.879-5.357-6.444-0.565-3.044-3.239-5.357-6.445-5.357s-5.879 2.313-6.444 5.357c-3.044 0.565-5.357 3.239-5.357 6.444 0 6.064 4.598 11.074 10.49 11.728v5.848h-2.887c-0.724 0-1.311 0.587-1.311 1.311s0.587 1.311 1.311 1.311h8.397c0.724 0 1.311-0.587 1.311-1.311s-0.587-1.311-1.311-1.311h-2.887v-5.848c5.892-0.654 10.49-5.664 10.49-11.728zM21.245 7.868c1.709 0 3.167 1.096 3.708 2.623h-7.417c0.541-1.526 1.999-2.623 3.708-2.623zM16 2.623c1.773 0 3.274 1.179 3.765 2.793-1.527 0.354-2.852 1.241-3.765 2.456-0.913-1.215-2.238-2.102-3.765-2.456 0.49-1.615 1.992-2.793 3.765-2.793zM10.755 7.868c1.71 0 3.167 1.096 3.708 2.623h-7.417c0.541-1.526 1.999-2.623 3.708-2.623zM16 20.98c-4.616 0-8.447-3.425-9.086-7.868h18.171c-0.638 4.442-4.469 7.868-9.086 7.868z"></path>
</svg>
