<!-- Generated by IcoMoon.io -->
<svg version="1.1" xmlns="http://www.w3.org/2000/svg" width="32" height="32" viewBox="0 0 32 32">
<title>ice-cream-svgrepo-com-3</title>
<path d="M27.563 13.418c-0.124-0.143-0.304-0.226-0.494-0.226h-0.407c0.093-0.405 0.141-0.82 0.141-1.242 0-0.403-0.044-0.795-0.126-1.174v-8.294c0-0.361-0.292-0.653-0.653-0.653h-2.354c-0.361 0-0.653 0.292-0.653 0.653v4.208c-0.115-0.039-0.232-0.075-0.35-0.106 0.017-0.187 0.027-0.374 0.027-0.56 0-3.322-2.702-6.024-6.024-6.024-2.405 0-4.544 1.401-5.51 3.587-3.218 0.435-5.708 3.2-5.708 6.536 0 1.072 0.266 2.128 0.76 3.069h-1.282c-0.19 0-0.37 0.082-0.494 0.226s-0.18 0.334-0.152 0.521l2.547 17.502c0.047 0.321 0.322 0.559 0.646 0.559h17.045c0.324 0 0.6-0.238 0.646-0.559l2.547-17.502c0.027-0.188-0.028-0.378-0.152-0.521zM24.324 3.135h1.048v5.099c-0.31-0.343-0.662-0.646-1.048-0.904v-4.195zM25.498 11.949c0 0.426-0.062 0.842-0.185 1.242h-7.428c0.494-0.941 0.76-1.997 0.76-3.069 0-0.478-0.052-0.944-0.148-1.393 0.769-0.661 1.737-1.022 2.759-1.022 2.339 0 4.242 1.903 4.242 4.242zM16.67 1.306c2.601 0 4.718 2.116 4.718 4.718 0 0.126-0.006 0.253-0.016 0.38-0.039-0.001-0.077-0.003-0.116-0.003-1.158 0-2.264 0.355-3.193 1.012-0.957-2.116-3-3.64-5.413-3.859 0.848-1.387 2.352-2.248 4.021-2.248zM12.049 4.833c2.917 0 5.29 2.373 5.29 5.29 0 1.117-0.338 2.171-0.981 3.069h-8.617c-0.643-0.898-0.981-1.953-0.981-3.069 0-2.917 2.373-5.29 5.29-5.29zM8.042 30.694l-0.781-5.369 5.338 5.369h-4.557zM18.228 30.694l-1.849-1.849c-0.255-0.255-0.669-0.255-0.924 0s-0.255 0.669 0 0.924l0.925 0.925h-1.94l-7.496-7.54-0.331-2.274 5.839 5.839c0.128 0.128 0.295 0.191 0.462 0.191s0.334-0.064 0.462-0.191c0.255-0.255 0.255-0.669 0-0.924l-7.040-7.040c-0.012-0.012-0.025-0.023-0.037-0.034l-0.615-4.225h0.309l16.101 16.196h-3.867zM24.438 27.391l-3.752-3.751c-0.255-0.255-0.669-0.255-0.924 0s-0.255 0.669 0 0.924l4.44 4.44-0.246 1.69h-0.041c-0.025-0.039-0.054-0.075-0.087-0.109l-15.993-16.087h1.914l7.083 7.083c0.128 0.128 0.295 0.191 0.462 0.191s0.334-0.064 0.462-0.191c0.255-0.255 0.255-0.669 0-0.924l-6.159-6.159h3.896c0.002 0.002 0.004 0.005 0.007 0.007l9.425 9.481c0.003 0.003 0.005 0.005 0.008 0.007l-0.494 3.398zM25.168 22.378l-7.833-7.88h1.945l6.137 6.173-0.248 1.707zM25.651 19.055l-4.53-4.557h4.645c0.001 0 0.002 0 0.003 0s0.001-0 0.002-0h0.543l-0.663 4.557z"></path>
<path d="M10.422 6.999c-0.224-0.283-0.634-0.331-0.917-0.107-0.993 0.785-1.562 1.959-1.562 3.223 0 0.361 0.292 0.653 0.653 0.653s0.653-0.292 0.653-0.653c0-0.862 0.388-1.663 1.066-2.198 0.283-0.224 0.331-0.634 0.107-0.917z"></path>
<path d="M14.877 27.296l-0.006-0.006c-0.255-0.255-0.669-0.255-0.924 0s-0.255 0.669 0 0.924l0.006 0.006c0.128 0.128 0.295 0.191 0.462 0.191s0.334-0.064 0.462-0.191c0.255-0.255 0.255-0.669 0-0.924z"></path>
<path d="M19.256 22.157l-0.006-0.006c-0.255-0.255-0.669-0.255-0.924 0s-0.255 0.669 0 0.924l0.006 0.006c0.128 0.128 0.295 0.191 0.462 0.191s0.334-0.064 0.462-0.191c0.255-0.255 0.255-0.669 0-0.924z"></path>
<path d="M12.052 6.008l-0.017-0c-0.001 0-0.002 0-0.003 0-0.359 0-0.652 0.291-0.653 0.651s0.29 0.654 0.651 0.656l0.017 0c0.001 0 0.002 0 0.003 0 0.359 0 0.652-0.291 0.653-0.651s-0.29-0.654-0.65-0.656z"></path>
</svg>
