<!-- Generated by IcoMoon.io -->
<svg version="1.1" xmlns="http://www.w3.org/2000/svg" width="32" height="32" viewBox="0 0 32 32">
<title>ice-cream1</title>
<path d="M21.585 4.75c-0.436-2.69-2.774-4.75-5.585-4.75s-5.149 2.060-5.585 4.75c-2.69 0.435-4.75 2.774-4.75 5.585 0 2.303 1.383 4.288 3.361 5.17l6.057 15.864c0.145 0.38 0.509 0.631 0.916 0.631s0.771-0.251 0.916-0.631l6.057-15.864c1.979-0.882 3.361-2.868 3.361-5.17-0-2.811-2.060-5.149-4.75-5.585zM16 28.271l-4.688-12.279h9.377l-4.688 12.279zM20.677 14.031h-9.354c-2.038 0-3.697-1.658-3.697-3.697s1.658-3.697 3.697-3.697c0.541 0 0.98-0.439 0.98-0.98 0-2.038 1.658-3.697 3.697-3.697s3.697 1.658 3.697 3.697c0 0.541 0.439 0.98 0.98 0.98 2.038 0 3.697 1.658 3.697 3.697s-1.658 3.697-3.697 3.697z"></path>
</svg>
