<!-- Generated by IcoMoon.io -->
<svg version="1.1" xmlns="http://www.w3.org/2000/svg" width="32" height="32" viewBox="0 0 32 32">
<title>ice-cream11</title>
<path d="M23.023 10.891c0.26-0.602 0.405-1.264 0.405-1.96 0-1.545-0.708-2.925-1.818-3.833 0.002-0.049 0.008-0.096 0.008-0.146 0-2.735-2.217-4.952-4.952-4.952-2.516 0-4.589 1.878-4.905 4.309-1.863 0.711-3.188 2.51-3.188 4.623 0 0.696 0.145 1.358 0.405 1.96h14.047zM16.51 0.614c2.117-0.217 4.037 1.525 4.278 3.883 0.020 0.193-0.121 0.365-0.314 0.385s-0.365-0.121-0.385-0.313c-0.202-1.973-1.776-3.434-3.508-3.257-0.193 0.020-0.365-0.121-0.385-0.313s0.12-0.365 0.314-0.385zM12.378 4.777c0.182-0.067 0.383 0.026 0.45 0.208s-0.026 0.384-0.208 0.45c-1.861 0.685-2.886 2.572-2.285 4.206 0.067 0.182-0.026 0.384-0.208 0.451-0.040 0.015-0.081 0.022-0.121 0.022-0.143 0-0.277-0.088-0.329-0.229-0.734-1.998 0.477-4.289 2.702-5.108zM7.461 11.673l8.539 20.327 8.539-20.327h-17.077zM15.105 17.249l1.675 1.717-2.088 2.038-1.675-1.717 2.088-2.038zM12.75 19.013l-1.765-1.808 2.088-2.037 1.764 1.808-2.088 2.037zM17.046 19.239l1.733 1.777-2.088 2.038-1.734-1.777 2.088-2.037zM16.992 18.758l-1.675-1.717 2.158-2.106 1.674 1.717-2.158 2.106zM17.688 14.729l2.23-2.175 1.674 1.716-2.229 2.176-1.675-1.717zM15.755 12.551h3.618l-1.952 1.904-1.764-1.808 0.098-0.097zM17.209 14.663l-2.158 2.106-1.764-1.808 2.158-2.107 1.765 1.808zM11.531 12.551h3.618l0.029 0.030-2.158 2.106-1.794-1.838 0.305-0.298zM10.984 12.551l-0.025 0.025-0.024-0.025h0.049zM8.782 12.551h1.738l0.226 0.232-1.324 1.293-0.64-1.524zM10.549 16.757l-0.967-2.303 1.432-1.397 1.794 1.838-2.088 2.038-0.171-0.175zM10.862 17.503l1.676 1.718-0.677 0.661-0.999-2.378zM12.020 20.26l0.784-0.766 1.675 1.717-1.461 1.426-0.998-2.377zM14.1 25.21l-0.922-2.196 1.569-1.531 1.734 1.777-2.194 2.141-0.187-0.191zM14.413 25.955l1.722 1.764-0.695 0.679-1.027-2.443zM16 29.733l-0.402-0.956 0.803-0.784 0.23 0.236-0.632 1.504zM16.756 27.932l-0.143-0.146 0.346-0.338-0.204 0.485zM17.34 26.544l-0.993 0.969-1.794-1.839 2.194-2.141 1.299 1.331-0.706 1.68zM18.17 24.568l-1.211-1.242 2.088-2.038 0.35 0.359-1.226 2.921zM19.521 21.351l-0.262-0.269 0.636-0.621-0.374 0.89zM20.275 19.558l-1.282 1.251-1.734-1.777 2.158-2.107 1.372 1.407-0.515 1.226zM20.914 18.035l-1.285-1.317 2.23-2.176 0.365 0.374-1.31 3.118zM22.349 14.62l-0.278-0.285 0.674-0.657-0.396 0.942zM21.804 14.063l-1.475-1.511h2.888l-0.094 0.224-1.319 1.288z"></path>
</svg>
