<!-- Generated by IcoMoon.io -->
<svg version="1.1" xmlns="http://www.w3.org/2000/svg" width="32" height="32" viewBox="0 0 32 32">
<title>SMOOTHIES</title>
<path d="M24.564 7.015l-0.204-0.436h-6.75l-5.235-0.049c-0.007 0.015-0.008 0.030-0.010 0.049-0.343 0-1.013 2.8-1.013 2.8l-0.228 1.44c-0.265 2.253-0.163 5.155 1.356 7.65 2.544 4.186 0.401 10.402 0.381 10.463l-0.045 0.124v2.944h10.986l-0.054-2.989-0.068-0.145c-0.021-0.047-2.16-4.813 0.439-10.282 2.917-6.133 0.546-11.349 0.444-11.569zM22.242 29.351l0.019 1.136h-7.933v-1.177c0.325-0.98 2.148-7.028-0.499-11.52 0.245 0.37 1.304 1.479 4.415-0.532 3.65-2.354 4.509 0.674 4.509 0.674-2.677 5.628-0.904 10.48-0.512 11.418z"></path>
<path d="M7.758 4.342c0.448-2.109 2.532-3.461 4.639-3.010 2.11 0.449 3.462 2.529 3.014 4.639l1.214 0.26c0.593-2.781-1.186-5.525-3.966-6.116-2.778-0.594-5.521 1.187-6.114 3.967s1.187 5.522 3.965 6.113l0.261-1.216c-2.109-0.446-3.461-2.529-3.013-4.637z"></path>
<path d="M15.034 5.974l0.020-0.095c0.199-0.927 0.021-1.875-0.494-2.672-0.516-0.794-1.311-1.341-2.239-1.539-0.331-0.069-0.672-0.095-1.011-0.069-1.557 0.119-2.874 1.27-3.198 2.802-0.408 1.913 0.818 3.801 2.731 4.208l0.098 0.021 0.983-2.886 3.11 0.23zM11.771 5.512l-0.016 0.043c-0.093 0.047-0.204 0.061-0.307 0.037-0.123-0.026-0.228-0.096-0.296-0.203-0.070-0.106-0.093-0.233-0.065-0.358 0.040-0.201 0.218-0.358 0.423-0.372 0.046-0.003 0.091 0 0.135 0.010 0.257 0.054 0.419 0.306 0.365 0.56-0.026 0.117-0.090 0.215-0.187 0.284l-0.052-0.002z"></path>
</svg>
