<!-- Generated by IcoMoon.io -->
<svg version="1.1" xmlns="http://www.w3.org/2000/svg" width="32" height="32" viewBox="0 0 32 32">
<title>SUNDAES</title>
<path d="M13.122 19.546c-2.052-0.544-3.787-1.942-4.761-3.836-0.165-0.321-0.559-0.447-0.879-0.282s-0.447 0.559-0.282 0.879c1.143 2.223 3.18 3.864 5.588 4.502 0.056 0.015 0.112 0.022 0.168 0.022 0.289 0 0.553-0.193 0.631-0.486 0.092-0.349-0.115-0.706-0.464-0.799z"></path>
<path d="M15.053 19.796h-0.009c-0.361 0-0.653 0.292-0.653 0.653s0.292 0.653 0.653 0.653h0.009c0.361 0 0.653-0.292 0.653-0.653s-0.292-0.653-0.653-0.653z"></path>
<path d="M27.742 0.289c-0.121-0.181-0.325-0.289-0.542-0.289h-3.657c-0.256 0-0.488 0.149-0.594 0.382l-3.010 6.595c-1.109-1.279-2.611-2.208-4.317-2.597 0.142-0.277 0.223-0.59 0.223-0.921 0-1.117-0.908-2.025-2.025-2.025s-2.025 0.908-2.025 2.025c0 0.332 0.081 0.645 0.223 0.922-3.395 0.775-5.984 3.688-6.269 7.242h-0.948c-0.361 0-0.653 0.292-0.653 0.653 0 5.794 4.542 10.547 10.253 10.886v4.812c-2.389 0.158-4.599 1.18-6.281 2.92-0.182 0.189-0.234 0.468-0.132 0.709s0.339 0.398 0.601 0.398h12.928c0.262 0 0.499-0.157 0.601-0.398s0.050-0.52-0.132-0.709c-1.682-1.74-3.892-2.762-6.281-2.92v-4.812c5.711-0.339 10.253-5.092 10.253-10.886 0-0.361-0.292-0.653-0.653-0.653h-1.898l4.396-10.721c0.083-0.201 0.060-0.431-0.062-0.612zM21.41 6.898l1.79 1.79-1.203 2.934h-0.106c-0.099-1.239-0.479-2.401-1.075-3.421l0.595-1.303zM13.819 2.739c0.396 0 0.719 0.322 0.719 0.719s-0.322 0.719-0.719 0.719-0.719-0.322-0.719-0.719 0.322-0.719 0.719-0.719zM13.819 5.483c3.525 0 6.431 2.699 6.76 6.139h-13.521c0.33-3.44 3.236-6.139 6.76-6.139zM19.737 30.694h-9.368c1.369-0.935 2.985-1.437 4.684-1.437s3.315 0.502 4.684 1.437zM24.631 12.928c-0.337 4.99-4.504 8.947-9.578 8.947s-9.241-3.957-9.578-8.947h19.156zM23.737 7.378l-1.748-1.748 0.567-1.242 1.707 1.707-0.526 1.283zM24.8 4.785l-1.665-1.665 0.567-1.242 1.624 1.624-0.526 1.283zM25.863 2.192l-0.886-0.886h1.249l-0.363 0.886z"></path>
</svg>
