<svg aria-hidden="true" style="position: absolute; width: 0; height: 0; overflow: hidden;" version="1.1" xmlns="http://www.w3.org/2000/svg" xmlns:xlink="http://www.w3.org/1999/xlink">
<defs>
<symbol id="icon-SUNDAES" viewBox="0 0 32 32">
<path d="M13.122 19.546c-2.052-0.544-3.787-1.942-4.761-3.836-0.165-0.321-0.559-0.447-0.879-0.282s-0.447 0.559-0.282 0.879c1.143 2.223 3.18 3.864 5.588 4.502 0.056 0.015 0.112 0.022 0.168 0.022 0.289 0 0.553-0.193 0.631-0.486 0.092-0.349-0.115-0.706-0.464-0.799z"></path>
<path d="M15.053 19.796h-0.009c-0.361 0-0.653 0.292-0.653 0.653s0.292 0.653 0.653 0.653h0.009c0.361 0 0.653-0.292 0.653-0.653s-0.292-0.653-0.653-0.653z"></path>
<path d="M27.742 0.289c-0.121-0.181-0.325-0.289-0.542-0.289h-3.657c-0.256 0-0.488 0.149-0.594 0.382l-3.010 6.595c-1.109-1.279-2.611-2.208-4.317-2.597 0.142-0.277 0.223-0.59 0.223-0.921 0-1.117-0.908-2.025-2.025-2.025s-2.025 0.908-2.025 2.025c0 0.332 0.081 0.645 0.223 0.922-3.395 0.775-5.984 3.688-6.269 7.242h-0.948c-0.361 0-0.653 0.292-0.653 0.653 0 5.794 4.542 10.547 10.253 10.886v4.812c-2.389 0.158-4.599 1.18-6.281 2.92-0.182 0.189-0.234 0.468-0.132 0.709s0.339 0.398 0.601 0.398h12.928c0.262 0 0.499-0.157 0.601-0.398s0.050-0.52-0.132-0.709c-1.682-1.74-3.892-2.762-6.281-2.92v-4.812c5.711-0.339 10.253-5.092 10.253-10.886 0-0.361-0.292-0.653-0.653-0.653h-1.898l4.396-10.721c0.083-0.201 0.060-0.431-0.062-0.612zM21.41 6.898l1.79 1.79-1.203 2.934h-0.106c-0.099-1.239-0.479-2.401-1.075-3.421l0.595-1.303zM13.819 2.739c0.396 0 0.719 0.322 0.719 0.719s-0.322 0.719-0.719 0.719-0.719-0.322-0.719-0.719 0.322-0.719 0.719-0.719zM13.819 5.483c3.525 0 6.431 2.699 6.76 6.139h-13.521c0.33-3.44 3.236-6.139 6.76-6.139zM19.737 30.694h-9.368c1.369-0.935 2.985-1.437 4.684-1.437s3.315 0.502 4.684 1.437zM24.631 12.928c-0.337 4.99-4.504 8.947-9.578 8.947s-9.241-3.957-9.578-8.947h19.156zM23.737 7.378l-1.748-1.748 0.567-1.242 1.707 1.707-0.526 1.283zM24.8 4.785l-1.665-1.665 0.567-1.242 1.624 1.624-0.526 1.283zM25.863 2.192l-0.886-0.886h1.249l-0.363 0.886z"></path>
</symbol>
<symbol id="icon-ice-cream-svgrepo-com-3" viewBox="0 0 32 32">
<path d="M27.563 13.418c-0.124-0.143-0.304-0.226-0.494-0.226h-0.407c0.093-0.405 0.141-0.82 0.141-1.242 0-0.403-0.044-0.795-0.126-1.174v-8.294c0-0.361-0.292-0.653-0.653-0.653h-2.354c-0.361 0-0.653 0.292-0.653 0.653v4.208c-0.115-0.039-0.232-0.075-0.35-0.106 0.017-0.187 0.027-0.374 0.027-0.56 0-3.322-2.702-6.024-6.024-6.024-2.405 0-4.544 1.401-5.51 3.587-3.218 0.435-5.708 3.2-5.708 6.536 0 1.072 0.266 2.128 0.76 3.069h-1.282c-0.19 0-0.37 0.082-0.494 0.226s-0.18 0.334-0.152 0.521l2.547 17.502c0.047 0.321 0.322 0.559 0.646 0.559h17.045c0.324 0 0.6-0.238 0.646-0.559l2.547-17.502c0.027-0.188-0.028-0.378-0.152-0.521zM24.324 3.135h1.048v5.099c-0.31-0.343-0.662-0.646-1.048-0.904v-4.195zM25.498 11.949c0 0.426-0.062 0.842-0.185 1.242h-7.428c0.494-0.941 0.76-1.997 0.76-3.069 0-0.478-0.052-0.944-0.148-1.393 0.769-0.661 1.737-1.022 2.759-1.022 2.339 0 4.242 1.903 4.242 4.242zM16.67 1.306c2.601 0 4.718 2.116 4.718 4.718 0 0.126-0.006 0.253-0.016 0.38-0.039-0.001-0.077-0.003-0.116-0.003-1.158 0-2.264 0.355-3.193 1.012-0.957-2.116-3-3.64-5.413-3.859 0.848-1.387 2.352-2.248 4.021-2.248zM12.049 4.833c2.917 0 5.29 2.373 5.29 5.29 0 1.117-0.338 2.171-0.981 3.069h-8.617c-0.643-0.898-0.981-1.953-0.981-3.069 0-2.917 2.373-5.29 5.29-5.29zM8.042 30.694l-0.781-5.369 5.338 5.369h-4.557zM18.228 30.694l-1.849-1.849c-0.255-0.255-0.669-0.255-0.924 0s-0.255 0.669 0 0.924l0.925 0.925h-1.94l-7.496-7.54-0.331-2.274 5.839 5.839c0.128 0.128 0.295 0.191 0.462 0.191s0.334-0.064 0.462-0.191c0.255-0.255 0.255-0.669 0-0.924l-7.040-7.040c-0.012-0.012-0.025-0.023-0.037-0.034l-0.615-4.225h0.309l16.101 16.196h-3.867zM24.438 27.391l-3.752-3.751c-0.255-0.255-0.669-0.255-0.924 0s-0.255 0.669 0 0.924l4.44 4.44-0.246 1.69h-0.041c-0.025-0.039-0.054-0.075-0.087-0.109l-15.993-16.087h1.914l7.083 7.083c0.128 0.128 0.295 0.191 0.462 0.191s0.334-0.064 0.462-0.191c0.255-0.255 0.255-0.669 0-0.924l-6.159-6.159h3.896c0.002 0.002 0.004 0.005 0.007 0.007l9.425 9.481c0.003 0.003 0.005 0.005 0.008 0.007l-0.494 3.398zM25.168 22.378l-7.833-7.88h1.945l6.137 6.173-0.248 1.707zM25.651 19.055l-4.53-4.557h4.645c0.001 0 0.002 0 0.003 0s0.001-0 0.002-0h0.543l-0.663 4.557z"></path>
<path d="M10.422 6.999c-0.224-0.283-0.634-0.331-0.917-0.107-0.993 0.785-1.562 1.959-1.562 3.223 0 0.361 0.292 0.653 0.653 0.653s0.653-0.292 0.653-0.653c0-0.862 0.388-1.663 1.066-2.198 0.283-0.224 0.331-0.634 0.107-0.917z"></path>
<path d="M14.877 27.296l-0.006-0.006c-0.255-0.255-0.669-0.255-0.924 0s-0.255 0.669 0 0.924l0.006 0.006c0.128 0.128 0.295 0.191 0.462 0.191s0.334-0.064 0.462-0.191c0.255-0.255 0.255-0.669 0-0.924z"></path>
<path d="M19.256 22.157l-0.006-0.006c-0.255-0.255-0.669-0.255-0.924 0s-0.255 0.669 0 0.924l0.006 0.006c0.128 0.128 0.295 0.191 0.462 0.191s0.334-0.064 0.462-0.191c0.255-0.255 0.255-0.669 0-0.924z"></path>
<path d="M12.052 6.008l-0.017-0c-0.001 0-0.002 0-0.003 0-0.359 0-0.652 0.291-0.653 0.651s0.29 0.654 0.651 0.656l0.017 0c0.001 0 0.002 0 0.003 0 0.359 0 0.652-0.291 0.653-0.651s-0.29-0.654-0.65-0.656z"></path>
</symbol>
<symbol id="icon-FRUIT" viewBox="0 0 32 32">
<path d="M27.802 11.802c0-3.205-2.313-5.879-5.357-6.444-0.565-3.044-3.239-5.357-6.445-5.357s-5.879 2.313-6.444 5.357c-3.044 0.565-5.357 3.239-5.357 6.444 0 6.064 4.598 11.074 10.49 11.728v5.848h-2.887c-0.724 0-1.311 0.587-1.311 1.311s0.587 1.311 1.311 1.311h8.397c0.724 0 1.311-0.587 1.311-1.311s-0.587-1.311-1.311-1.311h-2.887v-5.848c5.892-0.654 10.49-5.664 10.49-11.728zM21.245 7.868c1.709 0 3.167 1.096 3.708 2.623h-7.417c0.541-1.526 1.999-2.623 3.708-2.623zM16 2.623c1.773 0 3.274 1.179 3.765 2.793-1.527 0.354-2.852 1.241-3.765 2.456-0.913-1.215-2.238-2.102-3.765-2.456 0.49-1.615 1.992-2.793 3.765-2.793zM10.755 7.868c1.71 0 3.167 1.096 3.708 2.623h-7.417c0.541-1.526 1.999-2.623 3.708-2.623zM16 20.98c-4.616 0-8.447-3.425-9.086-7.868h18.171c-0.638 4.442-4.469 7.868-9.086 7.868z"></path>
</symbol>
<symbol id="icon-SMOOTHIES" viewBox="0 0 32 32">
<path d="M24.564 7.015l-0.204-0.436h-6.75l-5.235-0.049c-0.007 0.015-0.008 0.030-0.010 0.049-0.343 0-1.013 2.8-1.013 2.8l-0.228 1.44c-0.265 2.253-0.163 5.155 1.356 7.65 2.544 4.186 0.401 10.402 0.381 10.463l-0.045 0.124v2.944h10.986l-0.054-2.989-0.068-0.145c-0.021-0.047-2.16-4.813 0.439-10.282 2.917-6.133 0.546-11.349 0.444-11.569zM22.242 29.351l0.019 1.136h-7.933v-1.177c0.325-0.98 2.148-7.028-0.499-11.52 0.245 0.37 1.304 1.479 4.415-0.532 3.65-2.354 4.509 0.674 4.509 0.674-2.677 5.628-0.904 10.48-0.512 11.418z"></path>
<path d="M7.758 4.342c0.448-2.109 2.532-3.461 4.639-3.010 2.11 0.449 3.462 2.529 3.014 4.639l1.214 0.26c0.593-2.781-1.186-5.525-3.966-6.116-2.778-0.594-5.521 1.187-6.114 3.967s1.187 5.522 3.965 6.113l0.261-1.216c-2.109-0.446-3.461-2.529-3.013-4.637z"></path>
<path d="M15.034 5.974l0.020-0.095c0.199-0.927 0.021-1.875-0.494-2.672-0.516-0.794-1.311-1.341-2.239-1.539-0.331-0.069-0.672-0.095-1.011-0.069-1.557 0.119-2.874 1.27-3.198 2.802-0.408 1.913 0.818 3.801 2.731 4.208l0.098 0.021 0.983-2.886 3.11 0.23zM11.771 5.512l-0.016 0.043c-0.093 0.047-0.204 0.061-0.307 0.037-0.123-0.026-0.228-0.096-0.296-0.203-0.070-0.106-0.093-0.233-0.065-0.358 0.040-0.201 0.218-0.358 0.423-0.372 0.046-0.003 0.091 0 0.135 0.010 0.257 0.054 0.419 0.306 0.365 0.56-0.026 0.117-0.090 0.215-0.187 0.284l-0.052-0.002z"></path>
</symbol>
<symbol id="icon-cocktail-on-a-glass-svgrepo-com" viewBox="0 0 32 32">
<path d="M19.062 30.551v-10.911h0.732l8.323-12.497h-4.505l2.373-4.264c0.089 0.018 0.175 0.054 0.271 0.054 0.811 0 1.467-0.656 1.467-1.466s-0.656-1.467-1.467-1.467c-0.808 0-1.464 0.656-1.464 1.467 0 0.462 0.225 0.854 0.557 1.125l-2.533 4.55h-11.365c0.133-0.554 0.137-1.148-0.008-1.765-0.484-2.057-2.55-3.335-4.606-2.85-2.057 0.483-3.337 2.549-2.851 4.606s2.55 3.335 4.607 2.851c0.1-0.024 0.179-0.049 0.267-0.076l6.482 9.734h0.732v10.911c-2.737 0.076-4.772 0.366-4.772 0.712 0 0.405 2.805 0.735 6.266 0.735s6.264-0.328 6.264-0.735c-0.003-0.347-2.032-0.637-4.77-0.715zM4.657 7.283l2.47-0.58-1.329 2.146c-0.518-0.384-0.927-0.921-1.142-1.566zM6.316 9.161l0.984-1.593 0.725 1.090 0.184 0.782c-0.666 0.104-1.323-0.003-1.894-0.279zM8.289 7.144l-0.061-0.26-0.365-0.228-0.222 0.365 0.028 0.122h-0.104l0.076-0.122-0.098-0.415-0.413 0.096 0.222-0.361-0.362-0.226-2.472 0.583c-0.094-0.674 0.031-1.338 0.325-1.913l2.146 1.33 0.415-0.096-0.099-0.416-2.139-1.325c0.389-0.503 0.931-0.892 1.57-1.095l0.571 2.421 0.361 0.224 0.226-0.362-0.568-2.412c0.656-0.081 1.296 0.046 1.856 0.331l-1.288 2.081 0.098 0.416 0.415-0.098 1.285-2.073c0.488 0.378 0.873 0.898 1.079 1.517l-2.364 0.556-0.224 0.362 0.361 0.225-0.415 0.095 0.098 0.418 0.422 0.259-0.359 0.001zM8.547 6.371l2.363-0.557c0.064 0.457 0.023 0.908-0.099 1.331h-1.015l-1.249-0.774zM16.083 18.251l-6.471-9.721h12.431l-1.744 3.133 0.792-0.003 1.744-3.13h2.687l-6.472 9.721h-2.966zM17.301 17.045l2.998-5.38-8.255 0.003 4.403 6.312h2.328l4.313-6.319h-1.996l-3.186 5.719-0.605-0.335zM18.164 12.87c0.427 0 0.774 0.347 0.774 0.774 0 0.426-0.348 0.771-0.774 0.771-0.424 0-0.771-0.347-0.771-0.771 0-0.427 0.347-0.774 0.771-0.774zM14.676 13.219c-0.233 0-0.427-0.19-0.427-0.426s0.193-0.427 0.427-0.427c0.235 0 0.427 0.19 0.427 0.427 0 0.233-0.193 0.426-0.427 0.426zM17.737 13.643c0-0.236 0.191-0.427 0.427-0.427s0.427 0.191 0.427 0.427-0.191 0.427-0.427 0.427c-0.236 0-0.427-0.191-0.427-0.427zM7.819 5.919l-0.241 0.060 0.094-0.152 0.148 0.092zM7.957 6.506l-0.094 0.149-0.149-0.094 0.243-0.056zM8.090 6.293l0.039 0.172-0.172 0.041 0.133-0.213zM7.577 5.979l-0.131 0.212-0.041-0.172 0.172-0.039zM7.446 6.19l0.056 0.243-0.151-0.094 0.095-0.149zM8.090 6.293l-0.057-0.243 0.15 0.094-0.094 0.149zM7.714 6.562l-0.171 0.043-0.042-0.172 0.213 0.129zM7.819 5.919l0.174-0.039 0.039 0.171-0.213-0.131z"></path>
</symbol>
<symbol id="icon-ice-cream11" viewBox="0 0 32 32">
<path d="M23.023 10.891c0.26-0.602 0.405-1.264 0.405-1.96 0-1.545-0.708-2.925-1.818-3.833 0.002-0.049 0.008-0.096 0.008-0.146 0-2.735-2.217-4.952-4.952-4.952-2.516 0-4.589 1.878-4.905 4.309-1.863 0.711-3.188 2.51-3.188 4.623 0 0.696 0.145 1.358 0.405 1.96h14.047zM16.51 0.614c2.117-0.217 4.037 1.525 4.278 3.883 0.020 0.193-0.121 0.365-0.314 0.385s-0.365-0.121-0.385-0.313c-0.202-1.973-1.776-3.434-3.508-3.257-0.193 0.020-0.365-0.121-0.385-0.313s0.12-0.365 0.314-0.385zM12.378 4.777c0.182-0.067 0.383 0.026 0.45 0.208s-0.026 0.384-0.208 0.45c-1.861 0.685-2.886 2.572-2.285 4.206 0.067 0.182-0.026 0.384-0.208 0.451-0.040 0.015-0.081 0.022-0.121 0.022-0.143 0-0.277-0.088-0.329-0.229-0.734-1.998 0.477-4.289 2.702-5.108zM7.461 11.673l8.539 20.327 8.539-20.327h-17.077zM15.105 17.249l1.675 1.717-2.088 2.038-1.675-1.717 2.088-2.038zM12.75 19.013l-1.765-1.808 2.088-2.037 1.764 1.808-2.088 2.037zM17.046 19.239l1.733 1.777-2.088 2.038-1.734-1.777 2.088-2.037zM16.992 18.758l-1.675-1.717 2.158-2.106 1.674 1.717-2.158 2.106zM17.688 14.729l2.23-2.175 1.674 1.716-2.229 2.176-1.675-1.717zM15.755 12.551h3.618l-1.952 1.904-1.764-1.808 0.098-0.097zM17.209 14.663l-2.158 2.106-1.764-1.808 2.158-2.107 1.765 1.808zM11.531 12.551h3.618l0.029 0.030-2.158 2.106-1.794-1.838 0.305-0.298zM10.984 12.551l-0.025 0.025-0.024-0.025h0.049zM8.782 12.551h1.738l0.226 0.232-1.324 1.293-0.64-1.524zM10.549 16.757l-0.967-2.303 1.432-1.397 1.794 1.838-2.088 2.038-0.171-0.175zM10.862 17.503l1.676 1.718-0.677 0.661-0.999-2.378zM12.020 20.26l0.784-0.766 1.675 1.717-1.461 1.426-0.998-2.377zM14.1 25.21l-0.922-2.196 1.569-1.531 1.734 1.777-2.194 2.141-0.187-0.191zM14.413 25.955l1.722 1.764-0.695 0.679-1.027-2.443zM16 29.733l-0.402-0.956 0.803-0.784 0.23 0.236-0.632 1.504zM16.756 27.932l-0.143-0.146 0.346-0.338-0.204 0.485zM17.34 26.544l-0.993 0.969-1.794-1.839 2.194-2.141 1.299 1.331-0.706 1.68zM18.17 24.568l-1.211-1.242 2.088-2.038 0.35 0.359-1.226 2.921zM19.521 21.351l-0.262-0.269 0.636-0.621-0.374 0.89zM20.275 19.558l-1.282 1.251-1.734-1.777 2.158-2.107 1.372 1.407-0.515 1.226zM20.914 18.035l-1.285-1.317 2.23-2.176 0.365 0.374-1.31 3.118zM22.349 14.62l-0.278-0.285 0.674-0.657-0.396 0.942zM21.804 14.063l-1.475-1.511h2.888l-0.094 0.224-1.319 1.288z"></path>
</symbol>
<symbol id="icon-ice-cream1" viewBox="0 0 32 32">
<path d="M21.585 4.75c-0.436-2.69-2.774-4.75-5.585-4.75s-5.149 2.060-5.585 4.75c-2.69 0.435-4.75 2.774-4.75 5.585 0 2.303 1.383 4.288 3.361 5.17l6.057 15.864c0.145 0.38 0.509 0.631 0.916 0.631s0.771-0.251 0.916-0.631l6.057-15.864c1.979-0.882 3.361-2.868 3.361-5.17-0-2.811-2.060-5.149-4.75-5.585zM16 28.271l-4.688-12.279h9.377l-4.688 12.279zM20.677 14.031h-9.354c-2.038 0-3.697-1.658-3.697-3.697s1.658-3.697 3.697-3.697c0.541 0 0.98-0.439 0.98-0.98 0-2.038 1.658-3.697 3.697-3.697s3.697 1.658 3.697 3.697c0 0.541 0.439 0.98 0.98 0.98 2.038 0 3.697 1.658 3.697 3.697s-1.658 3.697-3.697 3.697z"></path>
</symbol>
<symbol id="icon-FLAVORS" viewBox="0 0 32 32">
<path d="M27.497 31.246l-6.729-27.218 1.193-0.689-0.608-1.054-1.589 0.917c-0 0-0 0-0 0l-0.223 0.129c-1.034-1.507-2.55-2.588-4.334-3.066-1.982-0.531-4.051-0.258-5.828 0.767s-3.047 2.682-3.579 4.664c-0.478 1.784-0.299 3.637 0.489 5.286l-1.804 1.041 0.608 1.054 1.184-0.684 7.046 6.777-0.003 0.004 0.041 0.033 13.123 12.622c0.116 0.112 0.269 0.17 0.422 0.17 0.104 0 0.209-0.027 0.304-0.081 0.235-0.135 0.351-0.41 0.286-0.673zM6.975 6.011c0.447-1.668 1.516-3.061 3.012-3.925 0.996-0.575 2.101-0.869 3.221-0.869 0.561 0 1.127 0.074 1.683 0.223 1.47 0.394 2.727 1.272 3.596 2.499l-9.219 5.322c-0.773-1.932-0.034-4.195 1.82-5.266 0.291-0.168 0.391-0.54 0.223-0.831s-0.541-0.392-0.831-0.223c-2.436 1.407-3.381 4.416-2.277 6.935l-0.863 0.498c-0.628-1.366-0.76-2.894-0.366-4.364zM18.322 22.29l1.155-1.75-1.015-0.67-1.031 1.562-2.469-2.375 2.094-2.661-0.956-0.752-2.019 2.566-2.724-2.62 2.959-3.955-0.974-0.729-2.868 3.834-3.097-2.979 0.023-0.014c0 0 0 0 0-0l12.273-7.086 6.139 24.832-7.489-7.203z"></path>
</symbol>
</defs>
</svg>
